<svg xmlns="http://www.w3.org/2000/svg" width="140" height="54" viewBox="0 0 140 54" shape-rendering="geometricPrecision">
  <title>WA OS vector logo</title>
  <desc>Logo created with ChatGPT Plus for the WA OS organization.</desc>
  <rect width="140" height="54" fill="#242424"/>

  <!-- left badge border -->
  <path fill="#f4f4f4" fill-rule="evenodd" d="
    M 6.4 6.1 L 78.9 6.1 L 78.9 17.6 L 74.8 21.5 L 74.8 31.6 L 78.9 35.7 L 78.9 47.0
    L 6.5 47.0 C 5.2 47.0 4.2 45.9 4.2 44.6 L 4.2 8.6 C 4.2 7.2 5.2 6.1 6.4 6.1 Z
    M 7.5 8.0 L 76.9 8.0 L 76.9 16.8 L 72.8 20.7 L 72.8 32.4 L 76.9 36.5 L 76.9 45.2
    L 7.5 45.2 C 6.7 45.2 6.2 44.6 6.2 43.8 L 6.2 9.4 C 6.2 8.6 6.8 8.0 7.5 8.0 Z"/>

  <!-- right badge -->
  <path fill="#f7f7f7" d="
    M 82.0 6.2 L 132.1 6.2 C 133.6 6.2 134.8 7.5 134.8 9.1 L 134.8 44.9
    C 134.8 46.5 133.6 47.8 132.1 47.8 L 82.0 47.8 L 82.0 35.6
    L 77.9 31.5 L 77.9 22.5 L 82.0 18.4 Z"/>

  <!-- subtle letter shadows matching the low-resolution source -->
  <g fill="#7c7c7c" opacity="0.75" transform="translate(1.2 1.25)">
    <path d="M15.2 18.5 L22.8 34.6 L25.9 34.6 L32.2 22.1 L38.4 34.6 L41.5 34.6 L49.2 18.5 L45.7 18.5 L39.8 30.8 L33.5 18.5 L30.8 18.5 L24.4 30.8 L18.7 18.5 Z"/>
    <path d="M58.1 18.5 L49.6 34.6 L53.2 34.6 L58.7 22.8 L60.4 22.8 L65.8 34.6 L69.3 34.6 L61.5 19.2 L61.5 18.5 Z"/>
  </g>

  <!-- WA -->
  <g fill="#ffffff">
    <path d="M15.2 18.5 L22.8 34.6 L25.9 34.6 L32.2 22.1 L38.4 34.6 L41.5 34.6 L49.2 18.5 L45.7 18.5 L39.8 30.8 L33.5 18.5 L30.8 18.5 L24.4 30.8 L18.7 18.5 Z"/>
    <path d="M58.1 18.5 L49.6 34.6 L53.2 34.6 L58.7 22.8 L60.4 22.8 L65.8 34.6 L69.3 34.6 L61.5 19.2 L61.5 18.5 Z"/>
  </g>

  <!-- OS shadow on white badge -->
  <g fill="#cfcfcf" transform="translate(1.2 1.1)">
    <path fill-rule="evenodd" d="M94.4 17.7 L102.7 17.7 L106.7 21.7 L106.7 31.7 L102.7 35.7 L94.4 35.7 L90.4 31.7 L90.4 21.7 Z M95.2 22.1 L95.2 31.3 L101.9 31.3 L101.9 22.1 Z"/>
    <path d="M113.4 17.7 L121.4 17.7 L124.5 20.0 L122.2 22.5 L113.3 22.5 L113.3 24.3 L120.8 24.3 L125.0 28.2 L125.0 31.7 L121.2 35.7 L112.5 35.7 L109.3 33.2 L111.6 30.6 L120.6 30.6 L120.6 28.7 L113.2 28.7 L109.3 25.2 L109.3 20.8 Z"/>
  </g>

  <!-- OS -->
  <g fill="#242424">
    <path fill-rule="evenodd" d="M94.4 17.7 L102.7 17.7 L106.7 21.7 L106.7 31.7 L102.7 35.7 L94.4 35.7 L90.4 31.7 L90.4 21.7 Z M95.2 22.1 L95.2 31.3 L101.9 31.3 L101.9 22.1 Z"/>
    <path d="M113.4 17.7 L121.4 17.7 L124.5 20.0 L122.2 22.5 L113.3 22.5 L113.3 24.3 L120.8 24.3 L125.0 28.2 L125.0 31.7 L121.2 35.7 L112.5 35.7 L109.3 33.2 L111.6 30.6 L120.6 30.6 L120.6 28.7 L113.2 28.7 L109.3 25.2 L109.3 20.8 Z"/>
  </g>
</svg>
